<?xml version="1.0" ?><svg xmlns="http://www.w3.org/2000/svg" xmlns:xlink="http://www.w3.org/1999/xlink" version="1.1" viewBox="0 0 512 512" style="enable-background:new 0 0 512 512;" xml:space="preserve"><g id="_x30_1_Sales_x2C__Business_and_Finance_x2C__Commerce_and_Shopping_x2C__Bars_Chart_x2C__Line_Bars"><g><rect x="271" y="191" style="fill:#72E4FA;" width="50" height="310"/><rect x="171" y="261" style="fill:#72E4FA;" width="50" height="240"/><rect x="71" y="331" style="fill:#72E4FA;" width="50" height="170"/><polygon style="fill:#82E693;" points="397.7,51 441,131 421,131 421,501 371,501 371,131 354.4,131   "/><g><path d="M501,491h-70V141h10c7.575,0,12.393-8.112,8.794-14.76l-43.3-80c-3.772-6.969-13.808-6.985-17.589,0l-43.3,80     C342,132.902,346.84,141,354.4,141h6.6v350h-30V191c0-5.523-4.477-10-10-10h-50c-5.523,0-10,4.477-10,10v300h-30V261     c0-5.523-4.477-10-10-10h-50c-5.523,0-10,4.477-10,10v230h-30V331c0-5.523-4.477-10-10-10H71c-5.523,0-10,4.477-10,10v160H11     c-5.523,0-10,4.477-10,10s4.477,10,10,10c100.868,0,382.306,0,490,0c5.523,0,10-4.477,10-10S506.523,491,501,491z M81,491V341h30     v150H81z M181,491V271h30v220H181z M281,491V201h30v290H281z M381,491V131c0-5.462-4.379-9.901-9.817-9.999L397.7,72.008     L424.217,121H421c-5.523,0-10,4.477-10,10v360H381z"/><path d="M18.071,313.071L296,35.143V86c0,5.523,4.477,10,10,10s10-4.477,10-10c0.001-80.597,0.03-75.244-0.056-76.05     C315.374,4.965,311.284,1,306,1h-75c-5.523,0-10,4.477-10,10s4.477,10,10,10h50.858L3.929,298.929     c-3.905,3.905-3.905,10.237,0,14.143C7.834,316.977,14.167,316.976,18.071,313.071z"/></g></g></g><g id="Layer_1"/></svg>